<svg xmlns="http://www.w3.org/2000/svg" width="45.924" height="44.746" viewBox="0 0 45.924 44.746">
  <g id="analysis" transform="translate(0 -6.558)">
    <path id="Path_1649" data-name="Path 1649" d="M115.883,87.546a2.245,2.245,0,1,0-1.792-.9L110.407,91.8a2.236,2.236,0,0,0-2.225.49L105.727,90.9a2.242,2.242,0,1,0-4.384,0l-2.456,1.394a2.239,2.239,0,1,0,.666,1.169l2.456-1.394a2.237,2.237,0,0,0,3.053,0l2.456,1.394a2.243,2.243,0,1,0,3.984-.875l3.684-5.149A2.236,2.236,0,0,0,115.883,87.546Zm0-3.139a.9.9,0,1,1-.9.9A.9.9,0,0,1,115.883,84.406ZM97.36,94.826a.9.9,0,1,1,.9-.9A.9.9,0,0,1,97.36,94.826Zm6.174-3.506a.9.9,0,1,1,.9-.9A.9.9,0,0,1,103.534,91.321Zm6.174,3.506a.9.9,0,1,1,.9-.9A.9.9,0,0,1,109.709,94.826Z" transform="translate(-86.586 -69.641)" fill="#4d4d4d"/>
    <path id="Path_1650" data-name="Path 1650" d="M37.564,70.33H1.9a.558.558,0,0,1-.557-.557V42.019a.558.558,0,0,1,.557-.557H5.074a.673.673,0,0,0,0-1.345H1.9a1.905,1.905,0,0,0-1.9,1.9V69.772a1.905,1.905,0,0,0,1.9,1.9H6.541v1.481a1.531,1.531,0,0,0,1.53,1.53H14.8l-3.17,6.189a.673.673,0,1,0,1.2.613l3.484-6.8h7.438l3.484,6.8a.673.673,0,1,0,1.2-.613l-3.17-6.189H32a1.531,1.531,0,0,0,1.53-1.53V71.675h4.035a.673.673,0,1,0,0-1.345Zm-5.38,2.826A.184.184,0,0,1,32,73.34H8.071a.184.184,0,0,1-.184-.184V71.675h24.3Z" transform="translate(0 -30.548)" fill="#4d4d4d"/>
    <path id="Path_1651" data-name="Path 1651" d="M79.744,10.913h30.4a.558.558,0,0,1,.557.557v6.4a.673.673,0,1,0,1.345,0v-6.4a1.905,1.905,0,0,0-1.9-1.9h-14.4V8.246A1.69,1.69,0,0,0,94.06,6.558H89.968A1.69,1.69,0,0,0,88.28,8.246V9.568H79.744a.673.673,0,0,0,0,1.345Zm9.882-2.668a.343.343,0,0,1,.342-.342H94.06a.343.343,0,0,1,.342.342V9.568H89.626V8.246Z" transform="translate(-71.979 0)" fill="#4d4d4d"/>
    <path id="Path_1652" data-name="Path 1652" d="M98.075,267.576a.673.673,0,0,0-.673.673v5.944a.673.673,0,0,0,.673.673H100.8a.673.673,0,0,0,.673-.673v-5.944a.673.673,0,0,0-.673-.673Zm2.056,5.944H98.747v-4.6h1.384Z" transform="translate(-88.665 -237.606)" fill="#4d4d4d"/>
    <path id="Path_1653" data-name="Path 1653" d="M166.91,229.248a.673.673,0,0,0-.673.673V239.3a.673.673,0,0,0,.673.673h2.729a.673.673,0,0,0,.673-.673v-9.382a.673.673,0,0,0-.673-.673Zm2.057,9.382h-1.384v-8.037h1.384Z" transform="translate(-151.326 -202.716)" fill="#4d4d4d"/>
    <path id="Path_1654" data-name="Path 1654" d="M235.746,267.576a.673.673,0,0,0-.673.673v5.944a.673.673,0,0,0,.673.673h2.729a.673.673,0,0,0,.673-.673v-5.944a.673.673,0,0,0-.673-.673Zm2.056,5.944h-1.384v-4.6H237.8Z" transform="translate(-213.988 -237.606)" fill="#4d4d4d"/>
    <path id="Path_1655" data-name="Path 1655" d="M304.582,311.832a.673.673,0,0,0-.673.673v1.975a.673.673,0,0,0,.673.673h2.729a.673.673,0,0,0,0-1.345h-2.056v-1.3A.673.673,0,0,0,304.582,311.832Z" transform="translate(-276.65 -277.892)" fill="#4d4d4d"/>
    <path id="Path_1656" data-name="Path 1656" d="M314.606,165.96l-3.859-6.685a8.8,8.8,0,1,0-8.7,2.482,8.84,8.84,0,0,0,2.29.3,8.682,8.682,0,0,0,1.98-.229l3.859,6.685a2.557,2.557,0,1,0,4.429-2.557Zm-12.21-5.5a7.447,7.447,0,1,1,5.651-.744A7.4,7.4,0,0,1,302.4,160.458Zm10.6,7.83a1.213,1.213,0,0,1-1.655-.443l-3.712-6.432a8.829,8.829,0,0,0,2.1-1.212l3.713,6.432a1.211,1.211,0,0,1-.443,1.655Z" transform="translate(-269.025 -125.546)" fill="#4d4d4d"/>
    <path id="Path_1657" data-name="Path 1657" d="M334.789,179.527a6.366,6.366,0,0,0-.318-4.612.673.673,0,1,0-1.217.573,5.039,5.039,0,1,1-1.519-1.877.673.673,0,1,0,.812-1.073,6.388,6.388,0,1,0,2.243,6.988Z" transform="translate(-293.391 -149.912)" fill="#4d4d4d"/>
  </g>
</svg>
