<svg xmlns="http://www.w3.org/2000/svg" width="42.46" height="42.461" viewBox="0 0 42.46 42.461">
  <g id="bookkeeping" transform="translate(0 -0.001)">
    <path id="Path_1658" data-name="Path 1658" d="M240,32h4.246v1.415H240Zm0,0" transform="translate(-218.77 -29.169)" fill="#4d4d4d"/>
    <path id="Path_1659" data-name="Path 1659" d="M240,64h4.246v1.415H240Zm0,0" transform="translate(-218.77 -58.339)" fill="#4d4d4d"/>
    <path id="Path_1660" data-name="Path 1660" d="M240,96h4.246v1.415H240Zm0,0" transform="translate(-218.77 -87.508)" fill="#4d4d4d"/>
    <path id="Path_1661" data-name="Path 1661" d="M240,128h4.246v1.415H240Zm0,0" transform="translate(-218.77 -116.677)" fill="#4d4d4d"/>
    <path id="Path_1662" data-name="Path 1662" d="M248,160h3.538v1.415H248Zm0,0" transform="translate(-226.062 -145.847)" fill="#4d4d4d"/>
    <path id="Path_1663" data-name="Path 1663" d="M256,192h2.831v1.415H256Zm0,0" transform="translate(-233.355 -175.016)" fill="#4d4d4d"/>
    <path id="Path_1664" data-name="Path 1664" d="M248,307.38a1.962,1.962,0,0,0,.82,1.593l4.431,3.165a.707.707,0,0,0,.411.132h11.323a.708.708,0,0,0,.708-.708v-7.709a2.181,2.181,0,0,0-1.769-2.17,2.132,2.132,0,0,0-1.726.476l-.043.036a2.118,2.118,0,0,0-2.831,0,2.2,2.2,0,0,0-2.123-.421v-3.583a2.181,2.181,0,0,0-1.769-2.17,2.123,2.123,0,0,0-2.477,2.094v8.658l-1.878-1.127a1.949,1.949,0,0,0-1.883-.071l-.111.055A1.947,1.947,0,0,0,248,307.38Zm1.715-.485.111-.055a.534.534,0,0,1,.521.02l2.95,1.769a.708.708,0,0,0,1.072-.606v-9.907a.708.708,0,0,1,.831-.7.768.768,0,0,1,.584.773v5.586a.708.708,0,0,0,1.415,0,.708.708,0,1,1,1.415,0,.708.708,0,0,0,1.415,0,.708.708,0,1,1,1.415,0,.708.708,0,0,0,1.415,0,.707.707,0,0,1,.832-.7.768.768,0,0,1,.583.773v7H253.888l-4.246-3.032a.546.546,0,0,1-.226-.442.539.539,0,0,1,.3-.485Zm0,0" transform="translate(-226.062 -269.809)" fill="#4d4d4d"/>
    <path id="Path_1665" data-name="Path 1665" d="M2.831,217.476H18.4a2.831,2.831,0,0,0,2.831-2.831V194.831A2.831,2.831,0,0,0,18.4,192H2.831A2.831,2.831,0,0,0,0,194.831v19.815A2.831,2.831,0,0,0,2.831,217.476ZM1.415,194.831a1.415,1.415,0,0,1,1.415-1.415H18.4a1.415,1.415,0,0,1,1.415,1.415v19.815a1.415,1.415,0,0,1-1.415,1.415H2.831a1.415,1.415,0,0,1-1.415-1.415Zm0,0" transform="translate(0 -175.016)" fill="#4d4d4d"/>
    <path id="Path_1666" data-name="Path 1666" d="M32.708,247.077H46.861a.708.708,0,0,0,.708-.708v-5.661a.708.708,0,0,0-.708-.708H32.708a.708.708,0,0,0-.708.708v5.661A.708.708,0,0,0,32.708,247.077Zm.708-5.661H46.153v4.246H33.415Zm0,0" transform="translate(-29.169 -218.77)" fill="#4d4d4d"/>
    <path id="Path_1667" data-name="Path 1667" d="M32.708,340.246h2.831a.708.708,0,0,0,.708-.708v-2.831a.708.708,0,0,0-.708-.708H32.708a.708.708,0,0,0-.708.708v2.831A.708.708,0,0,0,32.708,340.246Zm.708-2.831h1.415v1.415H33.415Zm0,0" transform="translate(-29.169 -306.278)" fill="#4d4d4d"/>
    <path id="Path_1668" data-name="Path 1668" d="M99.538,336H96.708a.708.708,0,0,0-.708.708v2.831a.708.708,0,0,0,.708.708h2.831a.708.708,0,0,0,.708-.708v-2.831A.708.708,0,0,0,99.538,336Zm-.708,2.831H97.415v-1.415h1.415Zm0,0" transform="translate(-87.508 -306.278)" fill="#4d4d4d"/>
    <path id="Path_1669" data-name="Path 1669" d="M32.708,404.246h2.831a.708.708,0,0,0,.708-.708v-2.831a.708.708,0,0,0-.708-.708H32.708a.708.708,0,0,0-.708.708v2.831A.708.708,0,0,0,32.708,404.246Zm.708-2.831h1.415v1.415H33.415Zm0,0" transform="translate(-29.169 -364.617)" fill="#4d4d4d"/>
    <path id="Path_1670" data-name="Path 1670" d="M99.538,400H96.708a.708.708,0,0,0-.708.708v2.831a.708.708,0,0,0,.708.708h2.831a.708.708,0,0,0,.708-.708v-2.831A.708.708,0,0,0,99.538,400Zm-.708,2.831H97.415v-1.415h1.415Zm0,0" transform="translate(-87.508 -364.617)" fill="#4d4d4d"/>
    <path id="Path_1671" data-name="Path 1671" d="M163.538,336h-2.831a.708.708,0,0,0-.708.708v2.831a.708.708,0,0,0,.708.708h2.831a.708.708,0,0,0,.708-.708v-2.831A.708.708,0,0,0,163.538,336Zm-.708,2.831h-1.415v-1.415h1.415Zm0,0" transform="translate(-145.847 -306.278)" fill="#4d4d4d"/>
    <path id="Path_1672" data-name="Path 1672" d="M163.538,400h-2.831a.708.708,0,0,0-.708.708v2.831a.708.708,0,0,0,.708.708h2.831a.708.708,0,0,0,.708-.708v-2.831A.708.708,0,0,0,163.538,400Zm-.708,2.831h-1.415v-1.415h1.415Zm0,0" transform="translate(-145.847 -364.617)" fill="#4d4d4d"/>
    <path id="Path_1673" data-name="Path 1673" d="M160,272h1.415v1.415H160Zm0,0" transform="translate(-145.847 -247.939)" fill="#4d4d4d"/>
    <path id="Path_1674" data-name="Path 1674" d="M128,272h1.415v1.415H128Zm0,0" transform="translate(-116.677 -247.939)" fill="#4d4d4d"/>
    <path id="Path_1675" data-name="Path 1675" d="M96,272h1.415v1.415H96Zm0,0" transform="translate(-87.508 -247.939)" fill="#4d4d4d"/>
    <path id="Path_1676" data-name="Path 1676" d="M338,64v1.415h-.212a1.94,1.94,0,0,0-.607,3.776l2.593.865a.505.505,0,0,1,.346.472v.022a.53.53,0,0,1-.525.527h-1.769a.538.538,0,0,1-.538-.538v-.17h-1.411v.17a1.955,1.955,0,0,0,1.953,1.953H338v1.415h1.415V72.492h.182a1.952,1.952,0,0,0,1.941-1.891v-.04a1.919,1.919,0,0,0-1.313-1.848l-2.594-.864a.518.518,0,0,1-.346-.514.507.507,0,0,1,.506-.5h1.794a.538.538,0,0,1,.538.538v.17h1.415v-.17a1.955,1.955,0,0,0-1.953-1.953h-.17V64Zm0,0" transform="translate(-306.154 -58.339)" fill="#4d4d4d"/>
    <path id="Path_1677" data-name="Path 1677" d="M122.627,6.142c-.008-.023-.013-.044-.024-.066a.7.7,0,0,0-.141-.207L116.8.207a.707.707,0,0,0-.207-.142c-.023-.01-.045-.016-.067-.023a.674.674,0,0,0-.181-.036c-.013,0-.027-.006-.043-.006H95.073a.708.708,0,0,0-.708.708V2.831h-.708a.708.708,0,0,0-.708.708v2.7l-.708.064A2.123,2.123,0,0,0,88,6.372v4.246a2.123,2.123,0,1,0,4.246.067l.708.064v2.7a.708.708,0,0,0,.708.708h.708v1.415h1.415V14.153H97.2v1.415h1.415V14.153h.708a.708.708,0,0,0,.708-.708V3.538a.708.708,0,0,0-.708-.708h-.708V1.415H107.1V21.23H102.15v1.415h5.661a.708.708,0,0,0,.708-.708V1.415H115.6V6.369a.708.708,0,0,0,.708.708h4.954V39.629h.708a.708.708,0,0,0,.708-.708V6.369c0-.015-.008-.028-.009-.043a.7.7,0,0,0-.037-.184Zm-28.261-1.9h4.246V5.723l-4.246.386Zm4.246,2.9v2.7l-4.246-.387V7.53ZM91.6,9.2a.718.718,0,0,0-.542.182.708.708,0,0,0-.23.525v.708a.708.708,0,1,1-1.415,0V6.369a.708.708,0,1,1,1.415,0v.708a.708.708,0,0,0,.772.708l1.351-.125V9.325Zm2.766,3.538V10.876l4.246.386v1.477ZM97.2,2.831H95.781V1.415H97.2Zm19.815,2.831V2.416l3.245,3.245Zm0,0" transform="translate(-80.212)" fill="#4d4d4d"/>
    <path id="Path_1678" data-name="Path 1678" d="M336,192h9.907v1.415H336Zm0,0" transform="translate(-306.278 -175.016)" fill="#4d4d4d"/>
    <path id="Path_1679" data-name="Path 1679" d="M336,224h9.907v1.415H336Zm0,0" transform="translate(-306.278 -204.185)" fill="#4d4d4d"/>
    <path id="Path_1680" data-name="Path 1680" d="M336,256h9.907v1.415H336Zm0,0" transform="translate(-306.278 -233.355)" fill="#4d4d4d"/>
    <path id="Path_1681" data-name="Path 1681" d="M368,288h7.077v1.415H368Zm0,0" transform="translate(-335.447 -262.524)" fill="#4d4d4d"/>
    <path id="Path_1682" data-name="Path 1682" d="M368,320h7.077v1.415H368Zm0,0" transform="translate(-335.447 -291.693)" fill="#4d4d4d"/>
    <path id="Path_1683" data-name="Path 1683" d="M416,160h2.831v1.415H416Zm0,0" transform="translate(-379.201 -145.847)" fill="#4d4d4d"/>
    <path id="Path_1684" data-name="Path 1684" d="M256,288h3.538v1.415H256Zm0,0" transform="translate(-233.355 -262.524)" fill="#4d4d4d"/>
    <path id="Path_1685" data-name="Path 1685" d="M256,320h2.831v1.415H256Zm0,0" transform="translate(-233.355 -291.693)" fill="#4d4d4d"/>
    <path id="Path_1686" data-name="Path 1686" d="M256,352h2.831v1.415H256Zm0,0" transform="translate(-233.355 -320.863)" fill="#4d4d4d"/>
  </g>
</svg>
