<svg xmlns="http://www.w3.org/2000/svg" width="167.459" height="103.316" viewBox="0 0 167.459 103.316">
  <g id="handshake_1_" data-name="handshake (1)" transform="translate(0.001 -98.057)">
    <path id="Path_1698" data-name="Path 1698" d="M83.762,179.3a8.535,8.535,0,0,0-6.737-1.586,8.551,8.551,0,0,0-9.608-7.071,8.647,8.647,0,0,0-1.63.389,8.544,8.544,0,0,0-11.473-5.5,8.559,8.559,0,0,0-14.087-3.414l-8.979-.6,5.5-44.7,9.861.67c.056,0,.112.006.167.006a2.453,2.453,0,0,0,2.182-1.334l3.7-7.211a4.363,4.363,0,0,1,5.027-2.206l5.488,1.518a2.453,2.453,0,0,0,1.308-4.729l-5.487-1.517a9.288,9.288,0,0,0-10.7,4.7l-2.959,5.774-7.981-.542.189-1.536a8.98,8.98,0,0,0-7.806-10l-18.9-2.325a2.453,2.453,0,0,0-.6,4.869l18.9,2.327a4.063,4.063,0,0,1,3.537,4.53l-6.49,52.723a4.07,4.07,0,0,1-4.53,3.537l-18.9-2.327a2.453,2.453,0,1,0-.6,4.869l18.9,2.327a8.961,8.961,0,0,0,8.953-4.579l6.717.446a8.557,8.557,0,0,0,7.591,12.469,8.723,8.723,0,0,0,1.188-.082l.076-.012c0,.026.005.051.009.076a8.548,8.548,0,0,0,8.465,7.382,8.63,8.63,0,0,0,1.26-.1A8.538,8.538,0,0,0,63.782,194a8.623,8.623,0,0,0,1.256-.1c0,.027.006.055.009.082a8.56,8.56,0,0,0,8.458,7.387,8.72,8.72,0,0,0,1.188-.082,8.5,8.5,0,0,0,5.65-3.31l5.074-6.7A8.564,8.564,0,0,0,83.762,179.3Zm-38.93-4.97a3.65,3.65,0,0,1-3.408-5.819l1.869-2.467a3.65,3.65,0,0,1,5.819,4.407l-1.869,2.467A3.627,3.627,0,0,1,44.831,174.326Zm7.027,6.663a3.649,3.649,0,0,1-.706-5.113l1.869-2.467h0l1.65-2.179a3.65,3.65,0,0,1,5.819,4.407l-3.519,4.647A3.654,3.654,0,0,1,51.859,180.988Zm9.73,7.369a3.65,3.65,0,0,1-.707-5.112h0L64.4,178.6h0l1.277-1.686a3.65,3.65,0,0,1,5.82,4.405l-4.8,6.334h0A3.654,3.654,0,0,1,61.589,188.357Zm19.917-.037-5.074,6.7a3.65,3.65,0,1,1-5.819-4.407l4.8-6.333,0,0,.276-.364a3.65,3.65,0,1,1,5.819,4.407Z" transform="translate(0)" fill="#4d4d4d"/>
    <path id="Path_1699" data-name="Path 1699" d="M274.22,165.87a2.453,2.453,0,0,0-2.734-2.135l-18.9,2.327a4.067,4.067,0,0,1-4.53-3.537l-.194-1.574h0l-.045-.364L241.565,109.8a4.063,4.063,0,0,1,3.537-4.53l18.9-2.327a2.453,2.453,0,1,0-.6-4.869L244.5,100.4a8.981,8.981,0,0,0-7.87,9.135l-4.766.587-14.759-8.306a11.714,11.714,0,0,0-6.852-1.463l-.015,0-4.443.411a2.453,2.453,0,1,0,.452,4.885l4.455-.412a6.828,6.828,0,0,1,3.995.852L230,114.7a2.454,2.454,0,0,0,1.651.388l5.536-.681,4.061,32.982,1.4,11.406-8.83.007a2.451,2.451,0,0,0-1.6.6l-.683.532L209.371,140.83c5.066-1.456,9.9-4.979,14.41-10.524a2.453,2.453,0,0,0-3.8-3.1c-5.047,6.2-10.353,9.388-15.772,9.482-7.894.148-13.695-6.4-13.748-6.459a2.453,2.453,0,0,0-3.8.109l-6.589,8.576a12.765,12.765,0,0,1-14.718,4.188l-.7-.266a1.638,1.638,0,0,1-.838-2.355l17.2-29.6a6.87,6.87,0,0,1,5.3-3.383l10.183-.942a2.453,2.453,0,0,0-.452-4.885l-10.183.942a11.786,11.786,0,0,0-9.089,5.8l-17.2,29.6a6.544,6.544,0,0,0,3.346,9.409l.7.266a17.871,17.871,0,0,0,6.323,1.162,17.643,17.643,0,0,0,14.019-6.951l4.916-6.4a24.225,24.225,0,0,0,13.823,6.046l32.035,27.61a2.847,2.847,0,0,1,.3,4.013l-1.248,1.448a4.365,4.365,0,0,1-6.145.451,2.456,2.456,0,0,0-.321-.231L219,167.674a2.453,2.453,0,0,0-3.2,3.716l6.758,5.827-3.083,3.577a4.346,4.346,0,0,1-6.143.454l-.036-.028-7.727-6.662a2.453,2.453,0,1,0-3.2,3.716l5.9,5.091-3.1,3.6a4.362,4.362,0,0,1-3.815,1.485,2.453,2.453,0,0,0-.573,4.872,9.264,9.264,0,0,0,8.1-3.155l3.315-3.85A9.257,9.257,0,0,0,223.187,184l3.321-3.854a9.284,9.284,0,0,0,10.988-2.314l1.25-1.45a7.752,7.752,0,0,0-.812-10.932l-2.013-1.735,7.359-.006a8.963,8.963,0,0,0,9.905,7.226l18.9-2.327A2.453,2.453,0,0,0,274.22,165.87Z" transform="translate(-106.78 0)" fill="#4d4d4d"/>
    <path id="Path_1700" data-name="Path 1700" d="M449.2,251.249a7.195,7.195,0,1,0,7.195,7.195A7.2,7.2,0,0,0,449.2,251.249Zm0,9.484a2.289,2.289,0,1,1,2.289-2.289A2.292,2.292,0,0,1,449.2,260.733Z" transform="translate(-297.44 -103.088)" fill="#4d4d4d"/>
    <path id="Path_1701" data-name="Path 1701" d="M39.583,258.444a7.195,7.195,0,1,0-7.195,7.2A7.2,7.2,0,0,0,39.583,258.444Zm-9.484,0a2.289,2.289,0,1,1,2.289,2.289A2.291,2.291,0,0,1,30.1,258.444Z" transform="translate(-16.954 -103.088)" fill="#4d4d4d"/>
  </g>
</svg>
