<svg xmlns="http://www.w3.org/2000/svg" width="159.045" height="145.475" viewBox="0 0 159.045 145.475">
  <g id="save-time" transform="translate(-0.001 -0.408)">
    <path id="Path_1695" data-name="Path 1695" d="M9.007,269.167a2.86,2.86,0,0,0,3.31,2.324l23.354-4.085A2.86,2.86,0,0,0,38,264.1l-.455-2.608,5.447-4.423a10.693,10.693,0,0,1,7.645-2.446l38.08,2.777c.064.006.127.007.191.008h.235a39.769,39.769,0,0,0,23.372-7.652,2.908,2.908,0,0,0,.31-.263l45.361-44.416a2.86,2.86,0,0,0,.159-3.919,14.969,14.969,0,0,0-20.572-1.962l-20.836,15.58a18.945,18.945,0,0,0-17.887-6.637l-21.3,3.725a22.971,22.971,0,0,1-10.19-.531l-2.381-.68a38.664,38.664,0,0,0-35.255,7.319l-.9-5.129a2.86,2.86,0,0,0-3.31-2.324L2.368,214.608A2.862,2.862,0,0,0,.044,217.92Zm54.61-53.007,2.383.68a28.716,28.716,0,0,0,12.74.665l21.3-3.725a13.235,13.235,0,0,1,14.493,7.975L82.65,227.332a2.861,2.861,0,1,0,.986,5.636l35.008-6.123a2.862,2.862,0,0,0,2.324-3.312,18.9,18.9,0,0,0-1.087-3.807l21.35-15.964.059-.046a9.26,9.26,0,0,1,10.694-.563L108.97,245.277a34.027,34.027,0,0,1-19.829,6.439h-.108l-37.987-2.788a16.37,16.37,0,0,0-11.69,3.722l-2.947,2.39-5.317-30.4a32.981,32.981,0,0,1,32.524-8.479Zm-39.728.49,7.979,45.613-17.718,3.1L6.171,219.752Zm0,0" transform="translate(0 -125.653)" fill="#f79320"/>
    <path id="Path_1696" data-name="Path 1696" d="M172.619,78.093a38.842,38.842,0,1,0-38.842-38.842,38.842,38.842,0,0,0,38.842,38.842Zm0-71.963A33.121,33.121,0,1,1,139.5,39.251,33.121,33.121,0,0,1,172.619,6.13Zm0,0" transform="translate(-85.945)" fill="#f79320"/>
    <path id="Path_1697" data-name="Path 1697" d="M231.415,77.563h16a2.86,2.86,0,1,0,0-5.721H234.131V53.556a2.861,2.861,0,0,0-5.721,0v21a3.113,3.113,0,0,0,3,3Zm0,0" transform="translate(-146.742 -32.306)" fill="#f79320"/>
  </g>
</svg>
